<?xml version="1.0" encoding="UTF-8" standalone="no"?>
<svg
   xmlns:dc="http://purl.org/dc/elements/1.1/"
   xmlns:cc="http://creativecommons.org/ns#"
   xmlns:rdf="http://www.w3.org/1999/02/22-rdf-syntax-ns#"
   xmlns:svg="http://www.w3.org/2000/svg"
   xmlns="http://www.w3.org/2000/svg"
   id="svg867"
   version="1.1"
   viewBox="0 0 33.465607 55.039448"
   height="55.039448mm"
   width="33.465607mm">
  <defs
     id="defs861" />
  <metadata
     id="metadata864">
    <rdf:RDF>
      <cc:Work
         rdf:about="">
        <dc:format>image/svg+xml</dc:format>
        <dc:type
           rdf:resource="http://purl.org/dc/dcmitype/StillImage" />
        <dc:title></dc:title>
      </cc:Work>
    </rdf:RDF>
  </metadata>
  <g
     transform="translate(-205.51717,-187.92692)"
     id="layer1">
    <path
       d="m 232.82458,242.86816 c 0.81657,0 2.46228,-1.57725 1.64571,-1.57725 -0.0566,0 -0.11476,0.001 -0.17165,0.001 0.0747,-0.14982 0.10087,-0.33073 0.0427,-0.51825 -0.59432,-1.89508 -2.13287,-3.04602 -3.90161,-2.94151 -1.75849,0.10584 -3.21833,1.5412 -3.52193,3.51797 -0.0102,0.0645 -0.0116,0.12634 -0.009,0.18719 -6.73067,0.39026 -13.61282,1.12911 -20.15762,1.33185 9.23826,-0.31651 16.83478,-0.002 26.07337,-0.001 z m -4.61731,-1.47142 c 1.08909,-0.009 2.18976,-0.10583 3.28017,-0.0618 -1.09306,0.0311 -2.19372,0.0761 -3.29836,0.13296 0.005,-0.0245 0.0129,-0.0476 0.0182,-0.0711 z"
       style="fill:#000000;fill-opacity:1;fill-rule:nonzero;stroke:none;stroke-width:0.330729"
       id="path12599" />
    <path
       d="m 232.82458,242.86816 c 0.24673,-0.006 0.47526,-0.11344 0.68726,-0.23118 0.21199,-0.12006 0.40944,-0.26359 0.59432,-0.42234 0.18322,-0.16008 0.36049,-0.33338 0.4908,-0.53876 0.0324,-0.0516 0.0609,-0.10583 0.0777,-0.16272 0.0165,-0.0569 0.0192,-0.12535 -0.0248,-0.16669 -0.0969,-0.0774 -0.2325,-0.0427 -0.35123,-0.0493 h -0.009 l 0.004,-0.008 c 0.0506,-0.10583 0.0787,-0.22357 0.0711,-0.34098 -0.003,-0.11906 -0.0503,-0.22886 -0.088,-0.3423 -0.0787,-0.22225 -0.17298,-0.44053 -0.2841,-0.64989 -0.21961,-0.4187 -0.50635,-0.80367 -0.85262,-1.12646 -0.68593,-0.6512 -1.63413,-1.02195 -2.58002,-0.98326 -0.47162,0.0155 -0.93927,0.128 -1.36426,0.32809 -0.42631,0.20273 -0.80995,0.48981 -1.13043,0.83343 -0.32147,0.34363 -0.57878,0.74547 -0.76597,1.17542 -0.0943,0.21596 -0.17065,0.43821 -0.23019,0.66542 -0.0294,0.11377 -0.0556,0.22854 -0.0774,0.34495 -0.0192,0.11642 -0.044,0.22854 -0.0347,0.34098 l 0.004,0.048 -0.0489,0.003 c -3.3602,0.20903 -6.71281,0.51396 -10.07037,0.7749 -1.67845,0.13196 -3.35789,0.25963 -5.03866,0.36711 -1.68076,0.1098 -3.36417,0.18719 -5.04858,0.23879 l -0.005,-0.19381 c 2.17289,-0.0698 4.34611,-0.10848 6.519,-0.11112 2.17422,-0.005 4.34744,0.0156 6.52033,0.0466 l 6.51768,0.10484 c 2.17289,0.0281 4.34578,0.0516 6.519,0.0552 z m 0,0 c -2.17322,0.005 -4.34611,-0.009 -6.519,-0.0294 l -6.519,-0.0466 c -4.34612,-0.0232 -8.69057,0.0208 -13.03272,0.17297 l -0.007,-0.19248 c 1.68209,-0.0542 3.36153,-0.14982 5.0423,-0.25037 1.67944,-0.10219 3.35922,-0.22225 5.03734,-0.34627 3.35624,-0.25466 6.71512,-0.50535 10.0793,-0.68593 l -0.045,0.0503 c -0.009,-0.12535 0.0192,-0.24805 0.04,-0.36447 0.0232,-0.1174 0.0503,-0.23382 0.0814,-0.34858 0.0632,-0.23151 0.1432,-0.4574 0.24143,-0.67568 0.19645,-0.4369 0.46137,-0.84369 0.7921,-1.18997 0.3294,-0.34627 0.72198,-0.63301 1.15623,-0.83344 0.43391,-0.20009 0.91082,-0.30857 1.38608,-0.31882 0.95482,-0.0298 1.90963,0.34363 2.59689,1.00377 0.34759,0.32543 0.63434,0.71305 0.85262,1.13407 0.1098,0.21067 0.20406,0.43027 0.28277,0.65385 0.0351,0.11244 0.084,0.22489 0.0867,0.34627 0.008,0.12006 -0.0218,0.23912 -0.0738,0.34627 l -0.005,-0.008 0.18356,-0.001 c 0.0592,0.003 0.12633,0.0106 0.17429,0.0542 0.0489,0.0453 0.044,0.11907 0.0271,0.17595 -0.0182,0.0592 -0.0466,0.11344 -0.0787,0.16669 -0.13328,0.20538 -0.31155,0.37703 -0.49477,0.53743 -0.1862,0.15875 -0.3853,0.30097 -0.59829,0.42102 -0.212,0.11642 -0.44185,0.22357 -0.68726,0.22854 z"
       style="fill:#000000;fill-opacity:1;fill-rule:nonzero;stroke:none;stroke-width:0.330729"
       id="path12601" />
    <path
       d="m 227.67148,241.39674 c 0.6355,-0.0476 1.26831,-0.0943 1.90381,-0.1303 0.6355,-0.0387 1.27447,-0.0556 1.91612,-0.0351 l -0.002,0.20803 c -0.63858,0.0156 -1.27908,0.0311 -1.91766,0.0351 -0.64012,0.005 -1.28024,0.0116 -1.9219,-0.001 h -0.009 l 0.003,-0.008 0.0269,-0.0685 z m 0,0 -0.015,0.0724 -0.006,-0.008 c 0.31852,-0.0337 0.63704,-0.0595 0.95594,-0.088 l 0.9571,-0.0645 c 0.64012,-0.039 1.2787,-0.0609 1.91882,-0.0777 l -0.002,0.20803 c -0.62935,-0.0245 -1.2637,-0.0142 -1.8992,-0.0142 -0.63589,0.004 -1.27293,0.009 -1.90997,-0.0284 z"
       style="fill:#000000;fill-opacity:1;fill-rule:nonzero;stroke:none;stroke-width:0.330729"
       id="path12603" />
    <path
       d="m 238.72611,211.34967 c -0.36049,-2.18976 -1.39402,-4.13941 -2.15635,-6.13404 -0.80367,-2.10343 -1.59412,-4.21282 -2.62136,-6.16247 -0.9224,-1.75055 -1.93907,-3.29572 -3.23486,-4.64046 -1.2571,-1.30738 -2.73249,-2.69247 -4.14569,-3.7131 -1.38377,-0.99979 -2.71297,-1.76212 -4.18207,-2.55389 -1.49589,-0.80632 -2.57473,1.10827 -3.79181,2.07996 -2.7864,2.2258 -5.44149,4.572 -7.48143,7.78999 -2.34983,3.71045 -3.40287,7.77214 -4.29022,11.14425 -1.1473,4.36926 -1.3411,8.85329 -1.20947,13.36609 0.18355,6.37811 0.40845,12.75622 0.32444,19.13963 -0.005,0.41969 0.29204,0.7997 0.63302,0.78812 0.0453,-4.96093 0.55695,-11.51896 0.41076,-16.47593 -0.0774,-2.61474 -0.72992,-5.12895 -0.79044,-7.74502 -0.0532,-2.24002 1.03849,-5.75667 1.39237,-7.96726 0.65914,-4.12486 1.80744,-6.71777 3.77759,-10.0717 1.94833,-3.31622 4.25682,-6.5524 6.97508,-8.90521 0.68097,-0.59035 1.4056,-1.20782 2.17686,-1.6004 0.71834,-0.36843 1.32821,-0.25731 1.97412,0.24408 1.23263,0.95713 2.9468,2.00124 4.38216,3.07214 1.3163,0.98194 2.44806,1.82794 3.96743,3.6625 1.26471,1.52697 2.73877,3.16408 3.57981,5.07735 0.89528,2.04126 1.09835,4.44798 1.947,6.519 0.4068,0.99351 0.80632,1.93146 1.04643,3.01262 0.23779,1.06726 0.29964,2.17553 0.31254,3.27752 0.0284,2.33958 -0.14585,4.68974 -0.1819,7.03064 -0.039,2.56448 -0.0724,5.12895 -0.13593,7.69342 -0.0903,3.76833 -0.25433,7.53435 -0.58374,11.28349 -0.0893,1.01038 1.17674,0.9998 1.26471,0 0.44715,-5.07338 0.58142,-10.17389 0.66543,-15.27307 0.04,-2.52545 0.04,-5.05652 0.14982,-7.57833 0.0929,-2.13287 0.17165,-4.25549 -0.1743,-6.35992 z"
       style="fill:#000000;fill-opacity:1;fill-rule:nonzero;stroke:none;stroke-width:0.330729"
       id="path12605" />
    <path
       d="m 238.72611,211.34967 c -0.3089,-1.87325 -1.12547,-3.60065 -1.84513,-5.33962 -0.7028,-1.75188 -1.3345,-3.53219 -2.11601,-5.25165 -0.77655,-1.71682 -1.68837,-3.38336 -2.82806,-4.88851 -0.56588,-0.75572 -1.21444,-1.44297 -1.88483,-2.10575 -0.66807,-0.66675 -1.35665,-1.31267 -2.07466,-1.92385 -1.42909,-1.23495 -3.02981,-2.25029 -4.67817,-3.16508 l -0.62012,-0.34098 c -0.20935,-0.10848 -0.40812,-0.2378 -0.63301,-0.30097 -0.22225,-0.0648 -0.46005,-0.0724 -0.68593,-0.0182 -0.22622,0.0529 -0.43789,0.15776 -0.63302,0.28542 -0.78184,0.52851 -1.34243,1.31399 -2.07632,1.91724 -1.47273,1.17839 -2.91703,2.39646 -4.23862,3.74286 -1.32292,1.34342 -2.51156,2.82145 -3.4882,4.43508 -0.97665,1.61098 -1.7532,3.33937 -2.38489,5.11472 -0.63699,1.77635 -1.12911,3.59768 -1.60569,5.42462 -0.98458,3.64431 -1.29977,7.43612 -1.29712,11.20346 0.001,1.88482 0.0876,3.77229 0.13692,5.65844 l 0.15743,5.66109 c 0.044,1.8878 0.0804,3.77528 0.0933,5.66374 0.006,0.94324 0.0103,1.8878 0.005,2.83203 l -0.0102,1.41585 c -0.001,0.11642 -0.005,0.24044 -0.003,0.35025 0.007,0.10583 0.0337,0.21299 0.08,0.30989 0.0906,0.19116 0.27285,0.35289 0.4703,0.34363 l -0.0761,0.079 c 0.0311,-3.06983 0.19646,-6.13271 0.30626,-9.19592 0.0566,-1.53227 0.10318,-3.06322 0.11476,-4.59548 0.003,-1.53194 0.0169,-3.06421 -0.17033,-4.58226 -0.17065,-1.51804 -0.44582,-3.02948 -0.57877,-4.56439 -0.0622,-0.76332 -0.11245,-1.54252 -0.0324,-2.31378 0.0711,-0.76994 0.20538,-1.5283 0.3552,-2.28269 0.29865,-1.5078 0.69883,-2.99079 0.96771,-4.49329 0.23912,-1.51408 0.56985,-3.02584 1.06198,-4.48568 0.48815,-1.46116 1.13803,-2.86279 1.8706,-4.21283 0.73653,-1.34871 1.52698,-2.66535 2.37067,-3.94924 1.6887,-2.55951 3.62115,-4.99864 6.0024,-6.95821 0.59167,-0.48981 1.20121,-0.973 1.9222,-1.29447 0.36578,-0.15247 0.7997,-0.17959 1.17839,-0.039 0.18851,0.0671 0.36413,0.16537 0.52552,0.27649 0.16305,0.1151 0.30758,0.23383 0.46269,0.3476 1.22866,0.90818 2.53339,1.71946 3.77627,2.624 0.61615,0.45608 1.23362,0.91315 1.82397,1.40693 0.59068,0.49344 1.1473,1.02823 1.66787,1.59411 0.52222,0.5672 0.9988,1.1678 1.49357,1.7532 0.4908,0.58902 0.97665,1.18467 1.42875,1.80611 0.45244,0.62243 0.87081,1.27099 1.21576,1.96089 0.34892,0.6899 0.60325,1.42114 0.81128,2.16132 0.42003,1.47802 0.677,2.99739 1.19889,4.43408 0.27021,0.71305 0.58672,1.41585 0.83344,2.14445 0.25433,0.72595 0.43789,1.47935 0.53347,2.24267 0.10087,0.76366 0.13295,1.5336 0.14221,2.30089 0.008,0.76762 -0.004,1.53491 -0.0271,2.3022 -0.0453,1.53227 -0.13064,3.06322 -0.15776,4.59549 l -0.0761,4.59912 c -0.0556,3.06585 -0.13196,6.13271 -0.29335,9.1946 -0.0787,1.53227 -0.18091,3.06189 -0.30758,4.59019 l -0.0476,0.57348 c -0.0182,0.19116 -0.04,0.381 0.0298,0.55563 0.0645,0.17164 0.2196,0.30493 0.40283,0.33073 0.18091,0.0311 0.37207,-0.0351 0.508,-0.15909 0.13791,-0.12402 0.21696,-0.3036 0.24672,-0.48683 0.0218,-0.18752 0.0334,-0.38133 0.0516,-0.57117 l 0.0916,-1.14597 c 0.23383,-3.0566 0.36314,-6.12114 0.44715,-9.18667 0.0427,-1.53227 0.0734,-3.06586 0.0995,-4.5978 l 0.0671,-4.59945 c 0.0165,-0.76596 0.0361,-1.53193 0.0658,-2.29823 0.0298,-0.76597 0.0685,-1.53227 0.088,-2.29824 0.04,-1.53227 0.0116,-3.07214 -0.23515,-4.58622 z m 0,0 c 0.25037,1.51408 0.28013,3.05395 0.24408,4.58622 -0.0182,0.76597 -0.0556,1.53227 -0.084,2.29824 -0.0284,0.7663 -0.048,1.53227 -0.0622,2.29823 l -0.0579,4.59945 c -0.0235,1.53327 -0.0529,3.06553 -0.0919,4.59912 -0.0787,3.06553 -0.20273,6.13007 -0.42995,9.18931 l -0.0919,1.14598 c -0.0169,0.19249 -0.0271,0.37968 -0.0503,0.57481 -0.0298,0.19248 -0.11377,0.38364 -0.26359,0.51825 -0.14486,0.13428 -0.35156,0.20671 -0.55165,0.17297 -0.20009,-0.0271 -0.37472,-0.17694 -0.4445,-0.36446 -0.0774,-0.18852 -0.0516,-0.3939 -0.0347,-0.58109 l 0.0476,-0.57249 c 0.1227,-1.52698 0.22225,-3.0566 0.29865,-4.58887 0.15742,-3.06189 0.22721,-6.12742 0.27649,-9.19328 l 0.0685,-4.5978 c 0.0245,-1.53491 0.10715,-3.06718 0.14982,-4.59779 0.0218,-0.7663 0.0321,-1.53227 0.0232,-2.29857 -0.0103,-0.76465 -0.044,-1.52963 -0.14453,-2.28666 -0.0969,-0.75837 -0.27914,-1.50118 -0.53248,-2.22184 -0.24804,-0.72364 -0.56323,-1.42115 -0.83707,-2.14081 -0.52983,-1.44959 -0.78813,-2.97028 -1.20915,-4.44037 -0.20935,-0.73389 -0.46136,-1.4572 -0.80631,-2.13684 -0.34231,-0.68064 -0.75836,-1.32424 -1.20915,-1.94171 -0.44946,-0.61748 -0.9353,-1.20915 -1.42743,-1.79719 -0.49609,-0.58373 -0.973,-1.18467 -1.49225,-1.74393 -0.51693,-0.56191 -1.0699,-1.09042 -1.65761,-1.5799 -0.58506,-0.48848 -1.20286,-0.94456 -1.81901,-1.39666 -1.23759,-0.89926 -2.54364,-1.70657 -3.78255,-2.61872 -0.15379,-0.11377 -0.30626,-0.23779 -0.4574,-0.34363 -0.15379,-0.10583 -0.31651,-0.19513 -0.48981,-0.25697 -0.34495,-0.12667 -0.72595,-0.1022 -1.06693,0.0387 -0.68362,0.30494 -1.29315,0.78416 -1.8759,1.27232 -2.36306,1.94965 -4.28029,4.37852 -5.95841,6.93142 -0.83708,1.28025 -1.62388,2.59655 -2.35513,3.94031 -0.72727,1.34474 -1.36921,2.73612 -1.85009,4.18571 -0.48552,1.44958 -0.81128,2.94415 -1.04776,4.45822 -0.26987,1.51673 -0.66245,3.00005 -0.96374,4.49991 -0.14982,0.7491 -0.2841,1.5025 -0.3552,2.25954 -0.0814,0.75571 -0.0334,1.5154 0.0284,2.27773 0.12799,1.52169 0.39919,3.03312 0.56985,4.56042 0.18587,1.53062 0.169,3.07347 0.16404,4.60541 -0.0155,1.53491 -0.0645,3.06718 -0.12403,4.60077 -0.11509,3.06421 -0.28541,6.1261 -0.32312,9.19063 v 0.0761 l -0.0761,0.003 c -0.14089,0.005 -0.27516,-0.0493 -0.38,-0.13063 -0.10451,-0.0814 -0.18323,-0.18852 -0.23879,-0.30361 -0.0556,-0.11741 -0.088,-0.24144 -0.0943,-0.37207 -0.003,-0.12634 9.9e-4,-0.23747 9.9e-4,-0.35785 l 0.0142,-1.41453 c 0.007,-0.94423 0.004,-1.88747 0,-2.83071 -0.0103,-1.88747 -0.0423,-3.77494 -0.0837,-5.66109 l -0.1475,-5.66105 c -0.0463,-1.88615 -0.12899,-3.7723 -0.12667,-5.66241 0.004,-3.77362 0.32577,-7.57569 1.3206,-11.22925 0.47922,-1.82563 0.97532,-3.6496 1.61726,-5.42859 0.63699,-1.77899 1.41718,-3.51135 2.40176,-5.12763 0.98193,-1.61627 2.17818,-3.09794 3.50606,-4.44169 1.32556,-1.34739 2.77515,-2.56447 4.25053,-3.73988 0.7286,-0.59432 1.28918,-1.38113 2.0826,-1.91592 0.19877,-0.13064 0.41738,-0.23779 0.65253,-0.29203 0.23383,-0.0556 0.48187,-0.048 0.71173,0.0192 0.23383,0.0661 0.43524,0.19778 0.64327,0.30626 l 0.62012,0.3423 c 1.64736,0.91877 3.2504,1.9394 4.67948,3.17831 0.71835,0.61482 1.40692,1.26206 2.07334,1.93013 0.67072,0.66378 1.31895,1.355 1.88483,2.11204 1.13837,1.50912 2.04655,3.17963 2.82178,4.89909 0.77887,1.72078 1.40791,3.50374 2.10708,5.25529 0.71702,1.74029 1.53094,3.47034 1.83587,5.34359 z"
       style="fill:#000000;fill-opacity:1;fill-rule:nonzero;stroke:none;stroke-width:0.330729"
       id="path12607" />
  </g>
</svg>
