<?xml version="1.0" encoding="UTF-8" standalone="no"?>
<svg
   xmlns:dc="http://purl.org/dc/elements/1.1/"
   xmlns:cc="http://creativecommons.org/ns#"
   xmlns:rdf="http://www.w3.org/1999/02/22-rdf-syntax-ns#"
   xmlns:svg="http://www.w3.org/2000/svg"
   xmlns="http://www.w3.org/2000/svg"
   xmlns:sodipodi="http://sodipodi.sourceforge.net/DTD/sodipodi-0.dtd"
   xmlns:inkscape="http://www.inkscape.org/namespaces/inkscape"
   sodipodi:docname="riaprite-fb.svg"
   inkscape:version="1.0rc1 (09960d6, 2020-04-09)"
   inkscape:export-ydpi="96"
   inkscape:export-xdpi="96"
   inkscape:export-filename="/Users/leonardo/code/riaprite/src/riaprite-fb.png"
   id="svg839"
   version="1.1"
   viewBox="0 0 317.49999 166.6875"
   height="630"
   width="1200">
  <defs
     id="defs833">
    <rect
       id="rect2008"
       height="108.85714"
       width="207.13095"
       y="26.458333"
       x="78.619048" />
    <rect
       x="78.619048"
       y="26.458333"
       width="207.13095"
       height="108.85714"
       id="rect2020" />
  </defs>
  <sodipodi:namedview
     inkscape:window-maximized="0"
     inkscape:window-y="24"
     inkscape:window-x="0"
     inkscape:window-height="699"
     inkscape:window-width="1280"
     units="px"
     showgrid="false"
     inkscape:document-rotation="0"
     inkscape:current-layer="layer1"
     inkscape:document-units="mm"
     inkscape:cy="331.42857"
     inkscape:cx="477.14286"
     inkscape:zoom="0.35"
     inkscape:pageshadow="2"
     inkscape:pageopacity="0.0"
     borderopacity="1.0"
     bordercolor="#666666"
     pagecolor="#ffffff"
     id="base" />
  <metadata
     id="metadata836">
    <rdf:RDF>
      <cc:Work
         rdf:about="">
        <dc:format>image/svg+xml</dc:format>
        <dc:type
           rdf:resource="http://purl.org/dc/dcmitype/StillImage" />
        <dc:title></dc:title>
      </cc:Work>
    </rdf:RDF>
  </metadata>
  <g
     id="layer1"
     inkscape:groupmode="layer"
     inkscape:label="Livello 1">
    <rect
       y="0"
       x="0"
       height="166.6875"
       width="317.5"
       id="rect1402"
       style="opacity:1;fill:#111827;fill-opacity:1;stroke-width:0" />
    <path
       inkscape:connector-curvature="0"
       id="path12599"
       style="fill:#ffffff;fill-opacity:1;fill-rule:nonzero;stroke:none;stroke-width:0;stroke-miterlimit:4;stroke-dasharray:none"
       d="m 97.002529,163.74659 c 2.411144,0 7.270561,-4.65725 4.859421,-4.65725 -0.16712,0 -0.33887,0.003 -0.50686,0.003 0.22059,-0.44238 0.29785,-0.97657 0.12609,-1.53028 -1.754896,-5.59575 -6.297888,-8.99421 -11.520588,-8.68562 -5.19243,0.31252 -9.503029,4.55082 -10.399488,10.38779 -0.03013,0.19046 -0.03425,0.37305 -0.02663,0.55272 -19.874175,1.15237 -40.195644,3.33402 -59.520989,3.93265 27.278537,-0.93457 49.709386,-0.005 76.988903,-0.003 z m -13.633904,-4.34477 c 3.215843,-0.0265 6.465884,-0.31248 9.685625,-0.18248 -3.227567,0.0919 -6.477578,0.22472 -9.739336,0.39262 0.01469,-0.0723 0.03813,-0.14056 0.05375,-0.20996 z" />
    <path
       inkscape:connector-curvature="0"
       id="path12601"
       style="fill:#ffffff;fill-opacity:1;fill-rule:nonzero;stroke:none;stroke-width:0;stroke-miterlimit:4;stroke-dasharray:none"
       d="m 97.002529,163.74659 c 0.728538,-0.0177 1.403334,-0.33496 2.029315,-0.68261 0.625966,-0.35451 1.208996,-0.77832 1.754896,-1.24708 0.54102,-0.47267 1.06446,-0.98439 1.44924,-1.59083 0.0956,-0.15237 0.17982,-0.3125 0.22943,-0.48048 0.0486,-0.16801 0.0568,-0.37013 -0.0732,-0.49221 -0.28612,-0.22854 -0.68652,-0.12607 -1.0371,-0.14555 h -0.0266 l 0.0118,-0.0236 c 0.1494,-0.31247 0.23239,-0.66015 0.20995,-1.00683 -0.009,-0.35156 -0.14852,-0.67576 -0.25985,-1.01073 -0.23238,-0.65626 -0.51077,-1.3008 -0.83888,-1.91899 -0.648458,-1.23632 -1.495144,-2.37306 -2.517601,-3.32619 -2.025394,-1.92285 -4.825226,-3.01759 -7.618221,-2.90334 -1.3926,0.0458 -2.773468,0.37795 -4.028361,0.96877 -1.258807,0.59862 -2.391617,1.4463 -3.33792,2.46094 -0.949227,1.01465 -1.709009,2.20119 -2.26174,3.47075 -0.278444,0.63769 -0.503889,1.29393 -0.6797,1.96484 -0.08683,0.33594 -0.164182,0.67483 -0.228546,1.01856 -0.05673,0.34376 -0.129921,0.67484 -0.102456,1.00684 l 0.01181,0.14174 -0.144391,0.009 c -9.92193,0.61722 -19.821447,1.51762 -29.735573,2.28812 -4.9561,0.38965 -9.915107,0.76663 -14.878058,1.08398 -4.962911,0.32423 -9.933654,0.55275 -14.907332,0.7051 l -0.0147,-0.57227 c 6.416058,-0.2061 12.833092,-0.32032 19.249167,-0.32811 6.419985,-0.0148 12.837025,0.0461 19.253083,0.1376 l 19.245274,0.30957 c 6.416071,0.083 12.832127,0.15236 19.249173,0.16299 z m 0,0 c -6.417039,0.0148 -12.833103,-0.0265 -19.249173,-0.0868 l -19.249162,-0.13762 c -12.833131,-0.0685 -25.661333,0.0614 -38.482745,0.51075 l -0.02061,-0.56835 c 4.966838,-0.16004 9.925857,-0.44238 14.888796,-0.73928 4.959019,-0.30175 9.919033,-0.65626 14.874153,-1.02247 9.910238,-0.75196 19.82827,-1.49218 29.76194,-2.02539 l -0.132872,0.14852 c -0.02651,-0.37013 0.05673,-0.73244 0.118112,-1.07621 0.06854,-0.34664 0.148525,-0.69041 0.240354,-1.02925 0.186623,-0.68361 0.422841,-1.35061 0.712893,-1.99515 0.580066,-1.29007 1.362326,-2.49123 2.3389,-3.51371 0.972644,-1.02247 2.131848,-1.86915 3.414088,-2.46097 1.281242,-0.59082 2.689449,-0.91114 4.092791,-0.9414 2.819375,-0.088 5.638711,1.01465 7.668042,2.96391 1.026362,0.96092 1.873071,2.10546 2.517604,3.34866 0.32421,0.62207 0.60254,1.27048 0.83496,1.93067 0.10363,0.332 0.24803,0.66405 0.256,1.02246 0.0236,0.35451 -0.0644,0.70605 -0.21792,1.02245 l -0.0148,-0.0236 0.54202,-0.003 c 0.1748,0.009 0.37303,0.0312 0.51464,0.16003 0.14439,0.13376 0.12992,0.35159 0.0801,0.51954 -0.0537,0.17481 -0.1376,0.33496 -0.23239,0.4922 -0.39355,0.60644 -0.91993,1.11329 -1.46094,1.58692 -0.54982,0.46875 -1.137708,0.88869 -1.76662,1.24316 -0.625989,0.34378 -1.304691,0.66016 -2.029323,0.67484 z" />
    <path
       inkscape:connector-curvature="0"
       id="path12603"
       style="fill:#ffffff;fill-opacity:1;fill-rule:nonzero;stroke:none;stroke-width:0;stroke-miterlimit:4;stroke-dasharray:none"
       d="m 81.786565,159.40182 c 1.876482,-0.14054 3.745029,-0.27844 5.621527,-0.38474 1.876497,-0.11427 3.763234,-0.16416 5.657875,-0.10365 l -0.0054,0.61427 c -1.885584,0.0461 -3.776846,0.0919 -5.66243,0.10364 -1.890124,0.0148 -3.780256,0.0343 -5.674943,-0.003 h -0.02653 l 0.0087,-0.0236 0.07938,-0.20226 z m 0,0 -0.04431,0.21379 -0.01771,-0.0236 c 0.940526,-0.0995 1.881045,-0.17568 2.822677,-0.25986 l 2.826111,-0.19044 c 1.890132,-0.11516 3.775716,-0.17983 5.665856,-0.22943 l -0.0054,0.61427 c -1.858331,-0.0723 -3.731425,-0.0419 -5.607931,-0.0419 -1.877634,0.0118 -3.758671,0.0265 -5.639708,-0.0838 z" />
    <path
       inkscape:connector-curvature="0"
       id="path12605"
       style="fill:#ffffff;fill-opacity:1;fill-rule:nonzero;stroke:none;stroke-width:0;stroke-miterlimit:4;stroke-dasharray:none"
       d="m 114.42844,70.67947 c -1.06445,-6.465875 -4.11623,-12.222766 -6.36723,-18.112463 -2.37305,-6.210968 -4.70707,-12.439531 -7.7403,-18.196421 C 97.597274,29.201604 94.595275,24.639054 90.769088,20.668341 87.057152,16.807936 82.700657,12.718067 78.527784,9.7043757 74.441814,6.7522198 70.516983,4.5012232 66.179064,2.1633038 61.76202,-0.21758106 58.576451,5.4357722 54.982683,8.3049602 46.755056,14.877263 38.915158,21.805069 32.891669,31.307084 25.953136,42.263224 22.843751,54.256497 20.223593,64.213595 c -3.387719,12.901459 -3.959965,26.1418 -3.5713,39.467105 0.541991,18.83315 1.206071,37.6663 0.95801,56.5151 -0.01482,1.23925 0.86232,2.36133 1.869165,2.32714 0.133765,-14.64852 1.644554,-34.01294 1.212885,-48.64978 -0.228546,-7.72075 -2.155293,-15.14465 -2.333994,-22.869333 -0.157085,-6.614279 3.066431,-16.998171 4.111358,-23.525556 1.94629,-12.1798 5.336973,-19.836089 11.154396,-29.739499 5.752986,-9.792064 12.56944,-19.34779 20.59586,-26.295123 2.01076,-1.7431781 4.150429,-3.5664201 6.427793,-4.7256223 2.121099,-1.0878966 3.921912,-0.7597796 5.829131,0.7207098 3.639691,2.8261945 8.701249,5.9092175 12.939553,9.0713555 3.886748,2.899443 7.228581,5.397505 11.714947,10.814548 3.734411,4.508801 8.086984,9.342827 10.570383,14.992293 2.64357,6.027388 3.24319,13.133905 5.74907,19.249167 1.20118,2.933614 2.38088,5.70317 3.08987,8.895607 0.70214,3.151374 0.88477,6.423849 0.92286,9.677778 0.0838,6.908268 -0.43066,13.847764 -0.5371,20.759925 -0.11517,7.57236 -0.21379,15.14466 -0.40137,22.71698 -0.26665,11.12705 -0.75098,22.24727 -1.72366,33.31766 -0.26369,2.98343 3.47466,2.95217 3.73441,0 1.32034,-14.98059 1.7168,-30.04126 1.96486,-45.09801 0.11812,-7.45709 0.11812,-14.93078 0.44239,-22.377136 0.27432,-6.297893 0.50684,-12.565517 -0.51467,-18.779434 z" />
    <path
       inkscape:connector-curvature="0"
       id="path12607"
       style="fill:#ffffff;fill-opacity:1;fill-rule:nonzero;stroke:none;stroke-width:0;stroke-miterlimit:4;stroke-dasharray:none"
       d="M 114.42844,70.67947 C 113.51632,65.148172 111.10518,60.047547 108.98018,54.912752 106.90497,49.739832 105.03969,44.48298 102.73207,39.405793 100.43908,34.336398 97.746681,29.415472 94.381431,24.971091 92.71051,22.739629 90.79546,20.710326 88.815942,18.75328 86.843284,16.784521 84.810063,14.877263 82.689931,13.072578 78.470148,9.4260421 73.743575,6.4279697 68.876335,3.7267998 L 67.045255,2.7199539 C 66.427092,2.399641 65.84017,2.0177872 65.176117,1.8312604 64.519863,1.6399217 63.817696,1.6174808 63.150719,1.7775112 c -0.66798,0.1562053 -1.292994,0.4658356 -1.869166,0.8427932 -2.3086,1.5605711 -3.963908,3.8799158 -6.130925,5.661184 -4.348647,3.4795206 -8.61334,7.0762126 -12.515702,11.0518406 -3.90629,3.96682 -7.416076,8.331112 -10.299879,13.095805 -2.883837,4.756868 -5.17682,9.860428 -7.042059,15.102637 -1.880891,5.245172 -3.33401,10.623161 -4.741245,16.017709 -2.907253,10.760832 -3.837937,21.957217 -3.830117,33.081341 0.0028,5.565449 0.258672,11.138729 0.404294,16.708109 l 0.464866,16.71596 c 0.129921,5.57425 0.237401,11.14757 0.275487,16.72378 0.01771,2.78517 0.03041,5.57425 0.01482,8.36235 l -0.03008,4.1807 c -0.0028,0.34376 -0.01482,0.70995 -0.0087,1.0342 0.02072,0.3125 0.09952,0.62891 0.236226,0.91504 0.267528,0.56446 0.805664,1.042 1.388693,1.01467 l -0.224708,0.23326 c 0.09186,-9.06453 0.580101,-18.10854 0.904318,-27.15352 0.167132,-4.52445 0.304673,-9.04501 0.33886,-13.56943 0.0087,-4.52348 0.04985,-9.04794 -0.502947,-13.5304 -0.503893,-4.48244 -1.316403,-8.945394 -1.708973,-13.477644 -0.18367,-2.253918 -0.332048,-4.554725 -0.09565,-6.832068 0.209942,-2.273476 0.606445,-4.512746 1.048831,-6.740291 0.881838,-4.4522 2.063491,-8.831136 2.857432,-13.267689 0.706059,-4.470748 1.682633,-8.934639 3.135796,-13.245222 1.441395,-4.314477 3.360339,-8.453182 5.523461,-12.439553 2.174808,-3.982445 4.508829,-7.870198 7.000062,-11.661242 4.986355,-7.557658 10.692466,-14.75987 17.723764,-20.546052 1.747065,-1.4462966 3.546915,-2.8730481 5.675833,-3.8222794 1.080067,-0.4502113 2.361341,-0.5302883 3.479532,-0.1151618 0.556623,0.1981289 1.075187,0.4883035 1.551733,0.8164205 0.481458,0.3398629 0.908221,0.6904478 1.36623,1.0263789 3.627956,2.6816528 7.480535,5.0771858 11.150486,7.7480958 1.819349,1.346703 3.642611,2.696336 5.385788,4.15435 1.744143,1.457024 3.387716,3.036138 4.924844,4.707056 1.541999,1.674815 2.949231,3.448252 4.410181,5.176808 1.449226,1.739246 2.883836,3.498074 4.218788,5.333052 1.335951,1.837892 2.571307,3.752953 3.589867,5.790076 1.03029,2.037123 1.78127,4.196302 2.39553,6.381893 1.24026,4.364266 1.99903,8.850637 3.54006,13.092868 0.79787,2.105475 1.73245,4.180689 2.46096,6.332076 0.75098,2.143574 1.293,4.368198 1.57522,6.622112 0.29784,2.254918 0.39257,4.528381 0.41992,6.794015 0.0236,2.266617 -0.0118,4.532251 -0.0801,6.797885 -0.13376,4.524462 -0.38576,9.045019 -0.46583,13.569476 l -0.22471,13.58018 c -0.16417,9.05279 -0.38965,18.10854 -0.8662,27.14963 -0.23238,4.52445 -0.53419,9.04108 -0.90821,13.55382 l -0.14056,1.69335 c -0.0537,0.56445 -0.11811,1.12501 0.088,1.64066 0.19045,0.5068 0.64843,0.90038 1.18946,0.97657 0.5342,0.0919 1.09865,-0.10364 1.50002,-0.46977 0.40721,-0.3662 0.64063,-0.89645 0.72851,-1.4375 0.0644,-0.55369 0.0986,-1.12598 0.15236,-1.68653 l 0.27048,-3.38379 c 0.69044,-9.02548 1.07227,-18.07439 1.32033,-27.12621 0.12608,-4.52446 0.21674,-9.05281 0.2938,-13.5763 l 0.19813,-13.581148 c 0.0487,-2.261713 0.1066,-4.523457 0.19431,-6.786168 0.088,-2.261744 0.20225,-4.524463 0.25983,-6.786199 0.11811,-4.524455 0.0343,-9.071348 -0.69435,-13.542088 z m 0,0 c 0.73929,4.470739 0.82717,9.017632 0.72072,13.542087 -0.0537,2.261752 -0.16418,4.524455 -0.24804,6.786199 -0.0838,2.262718 -0.14174,4.524455 -0.18366,6.786168 l -0.17096,13.581156 c -0.0694,4.52741 -0.15621,9.05184 -0.27137,13.58019 -0.23239,9.05183 -0.59862,18.10073 -1.26955,27.134 l -0.27136,3.38383 c -0.0499,0.56838 -0.0801,1.12111 -0.14852,1.69727 -0.088,0.56837 -0.33594,1.13282 -0.77832,1.53029 -0.42775,0.3965 -1.03808,0.61037 -1.6289,0.51074 -0.59083,-0.0801 -1.10647,-0.52247 -1.31251,-1.07616 -0.22855,-0.55666 -0.15236,-1.16311 -0.10246,-1.71585 l 0.14055,-1.69044 c 0.3623,-4.50882 0.65625,-9.02545 0.88185,-13.54991 0.46483,-9.04107 0.67089,-18.09291 0.81641,-27.14572 l 0.20226,-13.57629 c 0.0723,-4.532241 0.31639,-9.056704 0.44238,-13.576256 0.0644,-2.262718 0.0948,-4.524454 0.0685,-6.787165 -0.0304,-2.257846 -0.12992,-4.516664 -0.42676,-6.752004 -0.28612,-2.239294 -0.82424,-4.432649 -1.5723,-6.560604 -0.73241,-2.136744 -1.66309,-4.196337 -2.47168,-6.321339 -1.56447,-4.280323 -2.32717,-8.770577 -3.57036,-13.111432 -0.61816,-2.16701 -1.3623,-4.302785 -2.38085,-6.309609 -1.010762,-2.009786 -2.239268,-3.910193 -3.570362,-5.733447 -1.327149,-1.823282 -2.761728,-3.570346 -4.214875,-5.306706 -1.464855,-1.723622 -2.873054,-3.498068 -4.406291,-5.149433 -1.526378,-1.6592 -3.159171,-3.219772 -4.894551,-4.665099 -1.727555,-1.44238 -3.551792,-2.789083 -5.37114,-4.124023 C 74.781983,13.404587 70.925505,11.02079 67.267283,8.3274064 66.813172,7.9914703 66.362967,7.625268 65.916681,7.3127422 65.46257,7.0002488 64.982093,6.7365637 64.470385,6.5539632 63.451815,6.1799406 62.326807,6.2521919 61.319973,6.6682387 c -2.018576,0.9004178 -3.818392,2.3154558 -5.539118,3.7568843 -6.977594,5.75688 -12.638756,12.928798 -17.59387,20.466945 -2.471717,3.7803 -4.794955,7.667045 -6.954179,11.634869 -2.147471,3.970714 -4.042977,8.079153 -5.462906,12.359475 -1.43363,4.280295 -2.395528,8.693424 -3.093807,13.164138 -0.796864,4.478567 -1.956071,8.858482 -2.845711,13.287233 -0.442387,2.211932 -0.838889,4.436554 -1.048831,6.671926 -0.240354,2.231444 -0.09862,4.47465 0.08384,6.725636 0.377921,4.493219 1.178719,8.956135 1.682645,13.465915 0.548831,4.51958 0.499014,9.07526 0.484371,13.59875 -0.04578,4.53225 -0.190453,9.0567 -0.36623,13.58506 -0.339846,9.04794 -0.842764,18.08902 -0.954105,27.1379 v 0.2247 l -0.224713,0.009 c -0.416019,0.0148 -0.812482,-0.14555 -1.122051,-0.38572 -0.308594,-0.24035 -0.541039,-0.55665 -0.705097,-0.89649 -0.164175,-0.34668 -0.259842,-0.71292 -0.278445,-1.09864 -0.0087,-0.37306 0.0028,-0.70118 0.0028,-1.05665 l 0.04194,-4.17679 c 0.02061,-2.7881 0.01181,-5.57329 0,-8.35847 -0.03041,-5.57328 -0.124897,-11.14656 -0.247142,-16.71594 l -0.435541,-16.71582 c -0.136711,-5.56939 -0.380879,-11.13877 -0.374022,-16.719852 0.01181,-11.142662 0.961924,-22.369334 3.899433,-33.157493 1.415033,-5.390682 2.879916,-10.776457 4.775409,-16.029427 1.880902,-5.252964 4.184623,-10.368242 7.091875,-15.140756 2.899427,-4.772486 6.431683,-9.147532 10.35262,-13.115328 3.91408,-3.978546 8.194403,-7.572315 12.55087,-11.0430397 2.151405,-1.7549017 3.806668,-4.0781666 6.149461,-5.6572854 0.586928,-0.385747 1.232439,-0.7021443 1.92678,-0.8623093 0.690442,-0.1641694 1.422859,-0.1417293 2.101582,0.056727 0.690448,0.1951762 1.285168,0.5840035 1.899427,0.9043164 l 1.831085,1.010739 c 4.864282,2.712922 9.597707,5.7266181 13.817475,9.384845 2.121123,1.815428 4.15432,3.726579 6.122114,5.699255 1.980485,1.959986 3.89456,4.001008 5.565481,6.236375 3.361352,4.4561 6.043007,9.38875 8.332097,14.465937 2.29982,5.08108 4.15724,10.345769 6.22174,15.517708 2.1172,5.138695 4.52052,10.24715 5.42092,15.778437 z" />
    <text
       xml:space="preserve"
       id="text2018"
       style="font-style:normal;font-weight:normal;font-size:10.58329999999999949px;line-height:1.25;font-family:sans-serif;white-space:pre;shape-inside:url(#rect2020);fill:#d1d5db;fill-opacity:1;stroke:#111827;stroke-width:3.1;stroke-miterlimit:4;stroke-dasharray:none;stroke-opacity:1;"><tspan
         sodipodi:role="line"
         x="78.619141"
         y="52.995942"><tspan
           style="font-style:normal;font-variant:normal;font-weight:bold;font-stretch:normal;font-size:28.2222px;font-family:Helvetica;-inkscape-font-specification:'Helvetica, Bold';font-variant-ligatures:normal;font-variant-caps:normal;font-variant-numeric:normal;font-variant-east-asian:normal;stroke:#111827;stroke-width:3.1;stroke-miterlimit:4;stroke-dasharray:none;stroke-opacity:1">Riaprite il </tspan></tspan><tspan
         sodipodi:role="line"
         x="78.619141"
         y="88.273694"><tspan
           style="font-style:normal;font-variant:normal;font-weight:bold;font-stretch:normal;font-size:28.2222px;font-family:Helvetica;-inkscape-font-specification:'Helvetica, Bold';font-variant-ligatures:normal;font-variant-caps:normal;font-variant-numeric:normal;font-variant-east-asian:normal;stroke:#111827;stroke-width:3.1;stroke-miterlimit:4;stroke-dasharray:none;stroke-opacity:1">Teatro Rossi </tspan></tspan><tspan
         sodipodi:role="line"
         x="78.619141"
         y="123.55145"><tspan
           style="font-style:normal;font-variant:normal;font-weight:bold;font-stretch:normal;font-size:28.2222px;font-family:Helvetica;-inkscape-font-specification:'Helvetica, Bold';font-variant-ligatures:normal;font-variant-caps:normal;font-variant-numeric:normal;font-variant-east-asian:normal;stroke:#111827;stroke-width:3.1;stroke-miterlimit:4;stroke-dasharray:none;stroke-opacity:1">Aperto!</tspan><tspan
           dx="9.4257736"
           style="font-style:normal;font-variant:normal;font-weight:bold;font-stretch:normal;font-size:28.2222px;font-family:Helvetica;-inkscape-font-specification:'Helvetica, Bold';font-variant-ligatures:normal;font-variant-caps:normal;font-variant-numeric:normal;font-variant-east-asian:normal;stroke:#111827;stroke-width:3.1;stroke-miterlimit:4;stroke-dasharray:none;stroke-opacity:1" /></tspan></text>
    <text
       style="font-style:normal;font-weight:normal;font-size:10.58329999999999949px;line-height:1.25;font-family:sans-serif;white-space:pre;shape-inside:url(#rect2008);fill:#d1d5db;fill-opacity:1;stroke:none;stroke-width:1;stroke-miterlimit:4;stroke-dasharray:none;"
       id="text2006"
       xml:space="preserve"><tspan
         sodipodi:role="line"
         x="78.619141"
         y="52.995942"><tspan
           style="fill:#dc2626;fill-opacity:1;stroke-width:1;stroke-miterlimit:4;stroke-dasharray:none">Riaprite</tspan><tspan
           style="font-style:normal;font-variant:normal;font-weight:bold;font-stretch:normal;font-size:28.2222px;font-family:Helvetica;-inkscape-font-specification:'Helvetica, Bold';font-variant-ligatures:normal;font-variant-caps:normal;font-variant-numeric:normal;font-variant-east-asian:normal;stroke-width:1;stroke-miterlimit:4;stroke-dasharray:none"> il </tspan></tspan><tspan
         sodipodi:role="line"
         x="78.619141"
         y="88.273694"><tspan
           style="font-style:normal;font-variant:normal;font-weight:bold;font-stretch:normal;font-size:28.2222px;font-family:Helvetica;-inkscape-font-specification:'Helvetica, Bold';font-variant-ligatures:normal;font-variant-caps:normal;font-variant-numeric:normal;font-variant-east-asian:normal;stroke-width:1;stroke-miterlimit:4;stroke-dasharray:none">Teatro Rossi </tspan></tspan><tspan
         sodipodi:role="line"
         x="78.619141"
         y="123.55145"><tspan
           style="font-style:normal;font-variant:normal;font-weight:bold;font-stretch:normal;font-size:28.2222px;font-family:Helvetica;-inkscape-font-specification:'Helvetica, Bold';font-variant-ligatures:normal;font-variant-caps:normal;font-variant-numeric:normal;font-variant-east-asian:normal;stroke-width:1;stroke-miterlimit:4;stroke-dasharray:none">Aperto!</tspan><tspan
           dx="9.4257736"
           style="font-style:normal;font-variant:normal;font-weight:bold;font-stretch:normal;font-size:28.2222px;font-family:Helvetica;-inkscape-font-specification:'Helvetica, Bold';font-variant-ligatures:normal;font-variant-caps:normal;font-variant-numeric:normal;font-variant-east-asian:normal;stroke-width:1;stroke-miterlimit:4;stroke-dasharray:none" /></tspan></text>
  </g>
</svg>
