<?xml version="1.0" encoding="UTF-8" standalone="no"?>
<svg
   xmlns:dc="http://purl.org/dc/elements/1.1/"
   xmlns:cc="http://creativecommons.org/ns#"
   xmlns:rdf="http://www.w3.org/1999/02/22-rdf-syntax-ns#"
   xmlns:svg="http://www.w3.org/2000/svg"
   xmlns="http://www.w3.org/2000/svg"
   xmlns:xlink="http://www.w3.org/1999/xlink"
   xmlns:sodipodi="http://sodipodi.sourceforge.net/DTD/sodipodi-0.dtd"
   xmlns:inkscape="http://www.inkscape.org/namespaces/inkscape"
   inkscape:version="1.0rc1 (09960d6, 2020-04-09)"
   sodipodi:docname="trabianco.svg"
   width="177.41544mm"
   height="291.7872mm"
   viewBox="0 0 177.41543 291.7872"
   version="1.1"
   id="svg867">
  <sodipodi:namedview
     fit-margin-bottom="0"
     fit-margin-right="0"
     fit-margin-left="0"
     fit-margin-top="0"
     inkscape:current-layer="layer1"
     inkscape:window-maximized="0"
     inkscape:window-y="23"
     inkscape:window-x="0"
     inkscape:cy="178.80786"
     inkscape:cx="-153.09694"
     inkscape:zoom="0.20927"
     showgrid="false"
     id="namedview842"
     inkscape:window-height="680"
     inkscape:window-width="1216"
     inkscape:pageshadow="2"
     inkscape:pageopacity="1"
     guidetolerance="10"
     gridtolerance="10"
     objecttolerance="10"
     borderopacity="1"
     bordercolor="#666666"
     pagecolor="#50ffff" />
  <defs
     id="defs861">
    <linearGradient
       id="linearGradient858"
       inkscape:collect="always">
      <stop
         id="stop854"
         offset="0"
         style="stop-color:#ffffff;stop-opacity:1;" />
      <stop
         id="stop856"
         offset="1"
         style="stop-color:#ffffff;stop-opacity:0.15099715" />
    </linearGradient>
    <linearGradient
       gradientUnits="userSpaceOnUse"
       y2="216.72191"
       x2="205.95364"
       y1="216.19611"
       x1="237.57832"
       id="linearGradient860"
       xlink:href="#linearGradient858"
       inkscape:collect="always" />
  </defs>
  <metadata
     id="metadata864">
    <rdf:RDF>
      <cc:Work
         rdf:about="">
        <dc:format>image/svg+xml</dc:format>
        <dc:type
           rdf:resource="http://purl.org/dc/dcmitype/StillImage" />
        <dc:title></dc:title>
      </cc:Work>
    </rdf:RDF>
  </metadata>
  <g
     style="fill:url(#linearGradient860);fill-opacity:1;stroke:none;stroke-width:0;stroke-miterlimit:4;stroke-dasharray:none"
     id="layer1"
     transform="translate(-205.51698,-187.92673)">
    <path
       inkscape:connector-curvature="0"
       id="path12599"
       style="fill:#ffffff;fill-opacity:1;fill-rule:nonzero;stroke:none;stroke-width:0;stroke-miterlimit:4;stroke-dasharray:none"
       d="m 350.2852,479.19354 c 4.32897,0 13.05357,-8.36166 8.7246,-8.36166 -0.30005,0 -0.6084,0.005 -0.91,0.005 0.39603,-0.79426 0.53476,-1.75333 0.22638,-2.74745 -3.15074,-10.04662 -11.30723,-16.14822 -20.68407,-15.59418 -9.32249,0.56111 -17.06172,8.17055 -18.67123,18.65024 -0.0541,0.34194 -0.0615,0.66978 -0.0478,0.99236 -35.6821,2.06895 -72.16726,5.9859 -106.86398,7.06069 48.97588,-1.67794 89.24822,-0.0104 138.22586,-0.005 z m -24.4783,-7.80061 c 5.77372,-0.0476 11.60885,-0.56105 17.38956,-0.32763 -5.79477,0.16494 -11.62983,0.40345 -17.48599,0.70489 0.0264,-0.12983 0.0685,-0.25236 0.0965,-0.37694 z" />
    <path
       inkscape:connector-curvature="0"
       id="path12601"
       style="fill:#ffffff;fill-opacity:1;fill-rule:nonzero;stroke:none;stroke-width:0;stroke-miterlimit:4;stroke-dasharray:none"
       d="m 350.2852,479.19354 c 1.30802,-0.0318 2.51955,-0.60139 3.64344,-1.22557 1.12386,-0.6365 2.17063,-1.39741 3.15075,-2.23901 0.97133,-0.84864 1.91112,-1.76738 2.60195,-2.85618 0.17171,-0.27357 0.32285,-0.56106 0.41191,-0.86266 0.0874,-0.30165 0.10185,-0.66453 -0.1314,-0.8837 -0.5137,-0.41033 -1.23257,-0.22636 -1.86201,-0.26134 h -0.0478 l 0.0212,-0.0424 c 0.26824,-0.56104 0.41723,-1.18523 0.37694,-1.80767 -0.0156,-0.63118 -0.26667,-1.21328 -0.46654,-1.81467 -0.41721,-1.17824 -0.91703,-2.33544 -1.50612,-3.44534 -1.16425,-2.21971 -2.68438,-4.2606 -4.5201,-5.97184 -3.6364,-3.45228 -8.66321,-5.41779 -13.67776,-5.21267 -2.50027,0.0822 -4.97948,0.67858 -7.23252,1.73934 -2.26006,1.07475 -4.2939,2.59668 -5.99289,4.41836 -1.70425,1.82173 -3.06836,3.95205 -4.06072,6.2314 -0.49992,1.14489 -0.90469,2.32313 -1.22034,3.52767 -0.1559,0.60313 -0.29477,1.21158 -0.41033,1.82872 -0.10185,0.61719 -0.23326,1.21159 -0.18395,1.80768 l 0.0212,0.25447 -0.25924,0.0156 c -17.81383,1.10815 -35.58742,2.72472 -53.38725,4.10807 -8.89817,0.69957 -17.80158,1.37641 -26.71205,1.9462 -8.91041,0.5821 -17.83488,0.99238 -26.76463,1.26593 l -0.0264,-1.02747 c 11.5194,-0.37004 23.04054,-0.5751 34.55995,-0.58909 11.52645,-0.0266 23.0476,0.0827 34.56699,0.24705 l 34.55296,0.5558 c 11.5194,0.14895 23.03879,0.27355 34.55995,0.29263 z m 0,0 c -11.52114,0.0266 -23.04055,-0.0476 -34.55995,-0.1559 l -34.55995,-0.24706 c -23.0406,-0.12305 -46.07235,0.11019 -69.09191,0.917 l -0.037,-1.02043 c 8.91746,-0.28733 17.82088,-0.79426 26.73134,-1.32731 8.90342,-0.54175 17.80863,-1.17825 26.70505,-1.83572 17.79284,-1.35007 35.59967,-2.67907 53.43459,-3.63641 l -0.23856,0.26667 c -0.0476,-0.66453 0.10185,-1.31503 0.21206,-1.93222 0.12305,-0.62238 0.26666,-1.23957 0.43153,-1.84795 0.33506,-1.22734 0.75917,-2.42488 1.27992,-3.58207 1.04146,-2.3162 2.44592,-4.47276 4.19926,-6.30853 1.74628,-1.83572 3.82752,-3.35585 6.12965,-4.41841 2.30035,-1.06077 4.82864,-1.63587 7.3482,-1.6902 5.0619,-0.15798 10.12374,1.82171 13.7672,5.3214 1.84273,1.72524 3.36291,3.78017 4.5201,6.01218 0.58209,1.11686 1.0818,2.28104 1.49909,3.46634 0.18607,0.59609 0.44531,1.19223 0.45962,1.83572 0.0424,0.63648 -0.11558,1.26766 -0.39125,1.83572 l -0.0266,-0.0424 0.97314,-0.005 c 0.31383,0.0156 0.66973,0.0561 0.92398,0.28733 0.25923,0.24016 0.23326,0.63123 0.14374,0.93278 -0.0965,0.31385 -0.24705,0.60139 -0.41723,0.8837 -0.70658,1.0888 -1.65165,1.9988 -2.62298,2.84914 -0.98713,0.84159 -2.04263,1.59556 -3.17179,2.23199 -1.1239,0.61721 -2.34243,1.18525 -3.64344,1.2116 z" />
    <path
       inkscape:connector-curvature="0"
       id="path12603"
       style="fill:#ffffff;fill-opacity:1;fill-rule:nonzero;stroke:none;stroke-width:0;stroke-miterlimit:4;stroke-dasharray:none"
       d="m 322.96646,471.39293 c 3.36904,-0.25234 6.72383,-0.49992 10.09289,-0.69078 3.36906,-0.20515 6.75651,-0.29475 10.15815,-0.18607 l -0.0104,1.10285 c -3.38538,0.0827 -6.78095,0.16494 -10.16633,0.18609 -3.39354,0.0266 -6.78707,0.0615 -10.18879,-0.005 h -0.0476 l 0.0156,-0.0424 0.14252,-0.36315 z m 0,0 -0.0796,0.38383 -0.0318,-0.0424 c 1.68862,-0.17867 3.37723,-0.31543 5.06784,-0.46654 l 5.074,-0.34194 c 3.39354,-0.20675 6.77892,-0.32285 10.17247,-0.41191 l -0.0104,1.10285 c -3.33645,-0.12983 -6.69941,-0.0753 -10.06847,-0.0753 -3.37111,0.0212 -6.74832,0.0476 -10.12555,-0.15051 z" />
    <path
       inkscape:connector-curvature="0"
       id="path12605"
       style="fill:#ffffff;fill-opacity:1;fill-rule:nonzero;stroke:none;stroke-width:0;stroke-miterlimit:4;stroke-dasharray:none"
       d="m 381.57169,312.10083 c -1.91112,-11.60883 -7.3903,-21.94475 -11.43173,-32.51911 -4.26058,-11.15117 -8.45108,-22.33393 -13.89693,-32.66985 -4.89002,-9.28039 -10.27981,-17.47199 -17.14934,-24.60101 -6.66441,-6.93097 -14.48606,-14.27392 -21.97803,-19.6847 -7.33595,-5.3003 -14.3826,-9.34174 -22.1709,-13.53924 -7.93036,-4.27464 -13.64973,5.87539 -20.10198,11.02673 -14.77188,11.79991 -28.84763,24.23809 -39.6622,41.29801 -12.45744,19.67065 -18.04003,41.20337 -22.74426,59.08034 -6.08231,23.16328 -7.10972,46.93499 -6.41191,70.85924 0.97309,33.81303 2.16538,67.62607 1.72001,101.46719 -0.0266,2.22495 1.54821,4.23955 3.3559,4.17816 0.24016,-26.29996 2.95263,-61.06684 2.17761,-87.34581 -0.41033,-13.86184 -3.86961,-27.19071 -4.19045,-41.0596 -0.28203,-11.87528 5.50547,-30.51851 7.38153,-42.23778 3.49437,-21.86761 9.582,-35.61371 20.0266,-53.39429 10.32891,-17.58067 22.56717,-34.73702 36.9778,-47.21026 3.61012,-3.1297 7.45168,-6.40315 11.54046,-8.48438 3.80822,-1.95321 7.0414,-1.36411 10.46562,1.29396 6.5347,5.07415 15.62223,10.60941 23.23168,16.28671 6.97826,5.20566 12.97818,9.69068 21.03301,19.41644 6.70475,8.0951 14.51937,16.77411 18.97806,26.91716 4.74626,10.82157 5.82282,23.58061 10.32188,34.55995 2.15661,5.26701 4.27464,10.23947 5.54755,15.97117 1.26062,5.65798 1.58852,11.53338 1.65691,17.37549 0.15051,12.4031 -0.77321,24.86227 -0.96432,37.27237 -0.20676,13.59539 -0.38383,27.19072 -0.72062,40.78604 -0.47873,19.9775 -1.34831,39.94276 -3.09466,59.81851 -0.47342,5.35646 6.2384,5.30035 6.70476,0 2.37053,-26.89611 3.08236,-53.93605 3.52772,-80.96894 0.21206,-13.38847 0.21206,-26.80672 0.79426,-40.1759 0.49251,-11.30724 0.90998,-22.56013 -0.92403,-33.7166 z" />
    <path
       inkscape:connector-curvature="0"
       id="path12607"
       style="fill:#ffffff;fill-opacity:1;fill-rule:nonzero;stroke:none;stroke-width:0;stroke-miterlimit:4;stroke-dasharray:none"
       d="m 381.57169,312.10083 c -1.63762,-9.93089 -5.96659,-19.08855 -9.78182,-28.30756 -3.72583,-9.28746 -7.07474,-18.72561 -11.21785,-27.84119 -4.11682,-9.10159 -8.95076,-17.93662 -14.99273,-25.91606 -2.99997,-4.00637 -6.43826,-7.64978 -9.99228,-11.16346 -3.54171,-3.53471 -7.19216,-6.959 -10.99864,-10.19913 -7.57619,-6.54699 -16.06228,-11.92973 -24.80093,-16.77941 l -3.28752,-1.80769 c -1.10985,-0.57509 -2.16361,-1.26067 -3.35585,-1.59556 -1.17824,-0.34353 -2.43891,-0.38382 -3.6364,-0.0965 -1.19929,0.28045 -2.32144,0.83636 -3.3559,1.51315 -4.14486,2.80185 -7.1168,6.966 -11.00746,10.16409 -7.80756,6.24713 -15.46439,12.70463 -22.47069,19.84247 -7.01335,7.12203 -13.31482,14.95768 -18.4924,23.51221 -5.17764,8.54048 -9.29446,17.70341 -12.64331,27.11527 -3.37695,9.41718 -5.98588,19.07282 -8.51243,28.75819 -5.21968,19.32 -6.89063,39.42198 -6.87659,59.39424 0.005,9.99221 0.46442,19.99847 0.72587,29.99775 l 0.83462,30.01182 c 0.23326,10.008 0.42623,20.01434 0.49461,30.02585 0.0318,5.00051 0.0546,10.00803 0.0266,15.01378 l -0.054,7.50602 c -0.005,0.61719 -0.0266,1.27466 -0.0157,1.85682 0.0372,0.56105 0.17867,1.12914 0.42412,1.64285 0.48032,1.01342 1.44649,1.87081 2.49326,1.82173 l -0.40344,0.41881 c 0.16493,-16.27446 1.04151,-32.51207 1.62361,-48.75142 0.30007,-8.12322 0.54701,-16.23942 0.60839,-24.36257 0.0156,-8.12146 0.0895,-16.24467 -0.90299,-24.29247 -0.90469,-8.04778 -2.36347,-16.06056 -3.06829,-24.19776 -0.32976,-4.04668 -0.59616,-8.17755 -0.17172,-12.2663 0.37693,-4.08179 1.08881,-8.10218 1.88307,-12.10151 1.58325,-7.99348 3.70479,-15.85542 5.13023,-23.82081 1.26766,-8.02678 3.021,-16.04125 5.63001,-23.78047 2.58788,-7.74621 6.03315,-15.17684 9.91682,-22.33397 3.90465,-7.15008 8.09515,-14.13015 12.56791,-20.93659 8.9525,-13.56902 19.19725,-26.49987 31.82124,-36.88838 3.13668,-2.59668 6.36813,-5.15827 10.19039,-6.86252 1.93915,-0.80831 4.23955,-0.95208 6.24715,-0.20676 0.99936,0.35572 1.93039,0.8767 2.78598,1.4658 0.86441,0.61019 1.63062,1.23963 2.45293,1.84276 6.51363,4.81464 13.43056,9.11558 20.01959,13.91093 3.26646,2.41787 6.53993,4.841 9.66963,7.45872 3.13144,2.61594 6.08231,5.45108 8.84207,8.45105 2.7685,3.00696 5.29505,6.19099 7.91804,9.29444 2.60193,3.12264 5.17763,6.28044 7.57441,9.57496 2.39856,3.29975 4.61652,6.73805 6.44524,10.3955 1.84978,3.65745 3.19809,7.53404 4.30094,11.45805 2.22676,7.8356 3.58905,15.89043 6.35582,23.50693 1.4325,3.78017 3.11044,7.50601 4.41841,11.36861 1.34831,3.84857 2.32144,7.84266 2.82815,11.88934 0.53475,4.04848 0.70482,8.13025 0.75392,12.19798 0.0424,4.06947 -0.0212,8.1372 -0.14374,12.20492 -0.24016,8.12321 -0.69258,16.23942 -0.83635,24.36263 l -0.40345,24.38186 c -0.29475,16.25336 -0.69957,32.51207 -1.55517,48.74443 -0.41721,8.1232 -0.95908,16.23236 -1.6306,24.33452 l -0.25236,3.04025 c -0.0965,1.01341 -0.21205,2.01983 0.15799,2.94563 0.34194,0.90992 1.1642,1.61655 2.13556,1.75334 0.9591,0.16494 1.97251,-0.18608 2.69313,-0.84342 0.73111,-0.65747 1.1502,-1.60949 1.30797,-2.58088 0.11557,-0.99411 0.17707,-2.02158 0.27354,-3.028 l 0.48563,-6.07527 c 1.23962,-16.20433 1.92515,-32.45074 2.37052,-48.70239 0.22636,-8.1232 0.38913,-16.25341 0.52749,-24.37486 l 0.35573,-24.38361 c 0.0874,-4.06068 0.19137,-8.12142 0.34884,-12.18388 0.15798,-4.06074 0.36314,-8.12322 0.46652,-12.18394 0.21205,-8.12321 0.0615,-16.2867 -1.24664,-24.31347 z m 0,0 c 1.32731,8.02677 1.48509,16.19026 1.29396,24.31347 -0.0965,4.06074 -0.29476,8.1232 -0.44532,12.18394 -0.15051,4.06248 -0.25447,8.1232 -0.32974,12.18388 l -0.30695,24.38361 c -0.12462,8.12851 -0.28045,16.25166 -0.48721,24.38186 -0.41723,16.25166 -1.07476,32.49806 -2.27935,48.71638 l -0.4872,6.07532 c -0.0895,1.02047 -0.14373,2.01285 -0.26665,3.0473 -0.15798,1.02043 -0.60315,2.03384 -1.39741,2.74747 -0.76796,0.71186 -1.86377,1.09585 -2.92452,0.91699 -1.06077,-0.14374 -1.98655,-0.93803 -2.35648,-1.93217 -0.41034,-0.99941 -0.27355,-2.08822 -0.18396,-3.0806 l 0.25235,-3.03501 c 0.65047,-8.09515 1.17824,-16.20431 1.58327,-24.32751 0.83455,-16.23236 1.20452,-32.48402 1.46578,-48.73743 l 0.36314,-24.37487 c 0.12983,-8.13719 0.56806,-16.2604 0.79426,-24.37481 0.11558,-4.06248 0.17016,-8.1232 0.12306,-12.18568 -0.0546,-4.05373 -0.23326,-8.10921 -0.76621,-12.12254 -0.51371,-4.02043 -1.47984,-7.95838 -2.8229,-11.77891 -1.31498,-3.83631 -2.98593,-7.5341 -4.43767,-11.34933 -2.80884,-7.68489 -4.1782,-15.74669 -6.41021,-23.54026 -1.10985,-3.89065 -2.44587,-7.72522 -4.27458,-11.32827 -1.81473,-3.60837 -4.02039,-7.02036 -6.41023,-10.29383 -2.38276,-3.27352 -4.95841,-6.4102 -7.56739,-9.52766 -2.62999,-3.09459 -5.15827,-6.28043 -7.91105,-9.24529 -2.74046,-2.97893 -5.67197,-5.78078 -8.78768,-8.37572 -3.10165,-2.58965 -6.37687,-5.00752 -9.64333,-7.40427 -6.56098,-4.76737 -13.48491,-9.04724 -20.05288,-13.88294 -0.81531,-0.60314 -1.62361,-1.26062 -2.42487,-1.82173 -0.81531,-0.56105 -1.67796,-1.03447 -2.59668,-1.36231 -1.82874,-0.67152 -3.84858,-0.5418 -5.65625,0.20517 -3.62415,1.61661 -6.85554,4.15717 -9.94493,6.74511 -12.52757,10.3359 -22.69162,23.21236 -31.58803,36.74635 -4.43772,6.78715 -8.60886,13.76541 -12.48553,20.88924 -3.85557,7.12902 -7.25876,14.50531 -9.8081,22.1902 -2.57394,7.68484 -4.30093,15.60817 -5.55462,23.63489 -1.43069,8.04082 -3.51193,15.90452 -5.10919,23.8559 -0.79426,3.9713 -1.50614,7.96539 -1.88307,11.97877 -0.43153,4.00634 -0.17707,8.03378 0.15052,12.07521 0.67852,8.06712 2.11627,16.07984 3.02102,24.17669 0.98537,8.11446 0.89593,16.29375 0.86964,24.41521 -0.0822,8.1372 -0.34194,16.2604 -0.65753,24.39061 -0.61016,16.24467 -1.5131,32.47703 -1.713,48.72338 v 0.40343 l -0.40345,0.0156 c -0.74692,0.0264 -1.45873,-0.26134 -2.01453,-0.69251 -0.55405,-0.43154 -0.97138,-0.99942 -1.26593,-1.60957 -0.29476,-0.62244 -0.46652,-1.27997 -0.49992,-1.9725 -0.0156,-0.66979 0.005,-1.25893 0.005,-1.89711 l 0.0753,-7.49901 c 0.037,-5.00576 0.0212,-10.00627 0,-15.00679 -0.0546,-10.00627 -0.22424,-20.01254 -0.44372,-30.0118 l -0.78197,-30.0116 c -0.24545,-9.99927 -0.68383,-19.99855 -0.67152,-30.01881 0.0212,-20.00554 1.72704,-40.1619 7.00104,-59.53096 2.54055,-9.67843 5.1706,-19.34805 8.57377,-28.77923 3.37697,-9.43117 7.51307,-18.61514 12.73275,-27.18371 5.20563,-8.56852 11.54744,-16.42348 18.58709,-23.54726 7.02734,-7.14308 14.71223,-13.59533 22.53383,-19.82667 3.86263,-3.15075 6.83449,-7.32194 11.04074,-10.15709 1.05377,-0.69257 2.21272,-1.26063 3.45934,-1.54819 1.23962,-0.29475 2.5546,-0.25446 3.77318,0.10185 1.23963,0.35042 2.30739,1.04852 3.41023,1.62361 l 3.28753,1.81468 c 8.73334,4.87078 17.23173,10.28157 24.80789,16.84955 3.80827,3.25942 7.45867,6.6907 10.99164,10.23244 3.55576,3.51896 6.9923,7.18341 9.99227,11.19679 6.03497,8.00048 10.84961,16.85656 14.95944,25.97214 4.12911,9.12257 7.46391,18.57479 11.17051,27.86049 3.80122,9.22601 8.11615,18.39773 9.73272,28.3286 z" />
  </g>
</svg>
